<svg height="512pt" viewBox="-6 0 511 512" width="512pt" xmlns="http://www.w3.org/2000/svg"><path d="m483.5 512h-411c-8.285156 0-15-6.714844-15-15v-482c0-8.285156 6.714844-15 15-15h411c8.285156 0 15 6.714844 15 15v482c0 8.285156-6.714844 15-15 15zm0 0" fill="#70da40"/><path d="m483.5 0h-205.667969v512h205.667969c8.285156 0 15-6.714844 15-15v-482c0-8.285156-6.714844-15-15-15zm0 0" fill="#56c225"/><path d="m338.566406 393.023438c-24.175781 0-48.300781-9.238282-66.605468-27.542969l-83.550782-83.546875c-35.183594-35.1875-36.875-91.875-3.847656-129.066406 7.046875-7.9375 16.761719-11.886719 27.351562-11.121094 10.589844.769531 19.632813 6.078125 25.464844 14.953125l25.992188 39.554687c7.933594 12.074219 7.242187 27.761719-1.726563 39.03125-3.851562 4.835938-3.472656 11.523438.902344 15.898438l40.160156 40.160156c4.375 4.375 11.0625 4.753906 15.902344.902344 11.269531-8.96875 26.953125-9.660156 39.03125-1.726563l39.554687 25.992188c8.871094 5.832031 14.179688 14.875 14.949219 25.464843.765625 10.589844-3.183593 20.304688-11.121093 27.351563-17.839844 15.84375-40.167969 23.695313-62.457032 23.695313zm0 0" fill="#cff5cc"/><g fill="#54e360"><path d="m397.195312 316.515625-39.554687-25.996094c-12.078125-7.933593-27.761719-7.242187-39.03125 1.726563-4.839844 3.851562-11.527344 3.472656-15.902344-.898438l-24.875-24.875v104.371094c17.4375 14.730469 39.0625 22.183594 60.734375 22.179688 22.289063 0 44.617188-7.851563 62.457032-23.695313 7.9375-7.046875 11.886718-16.757813 11.121093-27.351563-.769531-10.589843-6.078125-19.632812-14.949219-25.460937zm0 0"/><path d="m367.113281 261.8125c-.480469 0-.964843-.023438-1.457031-.070312-8.246094-.792969-14.285156-8.121094-13.492188-16.367188 1.148438-11.933594-3.054687-23.640625-11.53125-32.117188-8.378906-8.378906-19.957031-12.59375-31.761718-11.5625-8.265625.710938-15.527344-5.386718-16.25-13.640624-.71875-8.253907 5.386718-15.527344 13.640625-16.246094 20.667969-1.804688 40.917969 5.574218 55.582031 20.238281 14.835938 14.835937 22.191406 35.320313 20.179688 56.207031-.746094 7.753906-7.273438 13.558594-14.910157 13.558594zm0 0"/><path d="m426.546875 266.902344c-.453125 0-.910156-.023438-1.371094-.0625-8.25-.75-14.332031-8.042969-13.582031-16.296875 2.675781-29.53125-7.8125-58.496094-28.78125-79.464844-20.808594-20.808594-49.558594-31.320313-78.878906-28.832031-8.253906.707031-15.515625-5.425782-16.214844-13.679688s5.425781-15.511718 13.679688-16.210937c38.148437-3.238281 75.554687 10.4375 102.628906 37.507812 27.28125 27.285157 40.929687 64.96875 37.441406 103.390625-.707031 7.792969-7.25 13.648438-14.921875 13.648438zm0 0"/></g><path d="m122.503906 143.078125h-70c-12.132812 0-22.003906-9.871094-22.003906-22.003906v-1.070313c0-12.132812 9.871094-22.003906 22.003906-22.003906h4.996094v-30h-4.996094c-28.675781 0-52.003906 23.328125-52.003906 52.003906v1.070313c0 28.675781 23.328125 52.003906 52.003906 52.003906h70c8.28125 0 15-6.714844 15-15 0-8.28125-6.71875-15-15-15zm0 0" fill="#d8e6eb"/><path d="m122.503906 278.078125h-70c-12.132812 0-22.003906-9.871094-22.003906-22.003906v-1.070313c0-12.132812 9.871094-22.003906 22.003906-22.003906h4.996094v-30h-4.996094c-28.675781 0-52.003906 23.328125-52.003906 52.003906v1.070313c0 28.675781 23.328125 52.003906 52.003906 52.003906h70c8.28125 0 15-6.714844 15-15 0-8.28125-6.71875-15-15-15zm0 0" fill="#d8e6eb"/><path d="m122.503906 413.078125h-70c-12.132812 0-22.003906-9.871094-22.003906-22.003906v-1.070313c0-12.132812 9.871094-22.003906 22.003906-22.003906h4.996094v-30h-4.996094c-28.675781 0-52.003906 23.328125-52.003906 52.003906v1.070313c0 28.675781 23.328125 52.003906 52.003906 52.003906h70c8.28125 0 15-6.714844 15-15 0-8.28125-6.71875-15-15-15zm0 0" fill="#d8e6eb"/></svg>